<svg t="1770593122948" class="icon" viewBox="0 0 1024 1024" version="1.1" xmlns="http://www.w3.org/2000/svg" p-id="17689" width="200" height="200"><path d="M544 930.848l365.728-199.424 0-363.424-365.728 133.152 0 429.728zM507.424 436.576l398.848-145.152-398.848-145.152-398.848 145.152zM982.848 292.576l0 438.848q0 20-10.272 37.152t-28 26.848l-402.272 219.424q-16 9.152-34.848 9.152t-34.848-9.152l-402.272-219.424q-17.728-9.728-28-26.848t-10.272-37.152l0-438.848q0-22.848 13.152-41.728t34.848-26.848l402.272-146.272q12.576-4.576 25.152-4.576t25.152 4.576l402.272 146.272q21.728 8 34.848 26.848t13.152 41.728z" p-id="17690"></path></svg>